<svg version="1.1" preserveAspectRatio="none" xmlns="http://www.w3.org/2000/svg" width="500" height="500"
  viewBox="0 0 500 500">
  <rect width="100%" height="100%" fill="#1E1E1E" fill-opacity="0" /><svg viewBox="575 248.5955 380 255.309" width="417"
    height="280.1680342105263" x="41.5px" y="109.916px" xmlns="http://www.w3.org/2000/svg"
    xmlns:xlink="http://www.w3.org/1999/xlink" preserveAspectRatio="none">
    <defs></defs>
    <style>
      .aDFQBjvS2colors-01b89afdb-e8a9-407d-906f-011b317b05d3 {
        fill: #7A63FF;
        fill-opacity: 1;
      }

      .aDFQBjvS2colors-11b89afdb-e8a9-407d-906f-011b317b05d3 {
        fill: #74E0EF;
        fill-opacity: 1;
      }

      .aDFQBjvS2colors-21b89afdb-e8a9-407d-906f-011b317b05d3 {
        fill: #FFFFFF;
        fill-opacity: 1;
      }

      .aDFQBjvS2colors-31b89afdb-e8a9-407d-906f-011b317b05d3 {
        fill: #969696;
        fill-opacity: 1;
      }

      .aDFQBjvS2colors-41b89afdb-e8a9-407d-906f-011b317b05d3 {
        fill: #C1F7FF;
        fill-opacity: 1;
      }

      .aDFQBjvS2colors-51b89afdb-e8a9-407d-906f-011b317b05d3 {
        fill: #EF75FD;
        fill-opacity: 1;
      }

      .aDFQBjvS2colors-61b89afdb-e8a9-407d-906f-011b317b05d3 {
        fill: #555555;
        fill-opacity: 1;
      }

      .aDFQBjvS2colors-71b89afdb-e8a9-407d-906f-011b317b05d3 {
        fill: #B4B4B4;
        fill-opacity: 1;
      }

      .ashadowGEzbSKUwp7-floo1b89afdb-e8a9-407d-906f-011b317b05d3 {
        flood-color: #7A63FF;
        flood-opacity: 1;
      }

      .companyName1b89afdb-e8a9-407d-906f-011b317b05d3 {
        fill: #E7E7E7;
        fill-opacity: 1;
      }

      .icon3-str1b89afdb-e8a9-407d-906f-011b317b05d3 {
        stroke: #FFFFFF;
        stroke-opacity: 1;
      }
    </style>
    <defs>
      <filter x="651" y="248.5955" width="228" height="156.4815" id="1b89afdb-e8a9-407d-906f-011b317b05d3bOgmppgFg"
        filterUnits="userSpaceOnUse" primitiveUnits="userSpaceOnUse" color-interpolation-filters="sRGB">
        <feMerge>
          <feMergeNode in="SourceGraphic" />
        </feMerge>
      </filter>
    </defs>
    <g opacity="1" transform="rotate(0 575 449.0003)">
      <svg width="380" height="54.9042" x="575" y="449.0003" version="1.1" preserveAspectRatio="none"
        viewBox="1.56 -31.48 221.20000000000002 31.96">
        <g transform="matrix(1 0 0 1 0 0)" class="companyName1b89afdb-e8a9-407d-906f-011b317b05d3">
          <path id="id-1b89afdb-e8a9-407d-906f-011b317b05d3D6z1nYkh9"
            d="M16.72 0.48Q12.44 0.48 8.98-1.38Q5.52-3.24 3.54-6.54Q1.56-9.84 1.56-14L1.56-14Q1.56-18.16 3.54-21.46Q5.52-24.76 8.98-26.62Q12.44-28.48 16.76-28.48L16.76-28.48Q20.40-28.48 23.34-27.20Q26.28-25.92 28.28-23.52L28.28-23.52L24.12-19.68Q21.28-22.96 17.08-22.96L17.08-22.96Q14.48-22.96 12.44-21.82Q10.40-20.68 9.26-18.64Q8.12-16.60 8.12-14L8.12-14Q8.12-11.40 9.26-9.36Q10.40-7.32 12.44-6.18Q14.48-5.04 17.08-5.04L17.08-5.04Q21.28-5.04 24.12-8.36L24.12-8.36L28.28-4.52Q26.28-2.08 23.32-0.80Q20.36 0.48 16.72 0.48L16.72 0.48Z M56.60-10.68Q56.60-10.56 56.48-9L56.48-9L40.20-9Q40.64-7 42.28-5.84Q43.92-4.68 46.36-4.68L46.36-4.68Q48.04-4.68 49.34-5.18Q50.64-5.68 51.76-6.76L51.76-6.76L55.08-3.16Q52.04 0.32 46.20 0.32L46.20 0.32Q42.56 0.32 39.76-1.10Q36.96-2.52 35.44-5.04Q33.92-7.56 33.92-10.76L33.92-10.76Q33.92-13.92 35.42-16.46Q36.92-19 39.54-20.42Q42.16-21.84 45.40-21.84L45.40-21.84Q48.56-21.84 51.12-20.48Q53.68-19.12 55.14-16.58Q56.60-14.04 56.60-10.68L56.60-10.68ZM45.44-17.12Q43.32-17.12 41.88-15.92Q40.44-14.72 40.12-12.64L40.12-12.64L50.72-12.64Q50.40-14.68 48.96-15.90Q47.52-17.12 45.44-17.12L45.44-17.12Z M70.80-18.68Q71.92-20.24 73.82-21.04Q75.72-21.84 78.20-21.84L78.20-21.84L78.20-16.08Q77.16-16.16 76.80-16.16L76.80-16.16Q74.12-16.16 72.60-14.66Q71.08-13.16 71.08-10.16L71.08-10.16L71.08 0L64.84 0L64.84-21.52L70.80-21.52L70.80-18.68Z M98.96-5.44L100.64-1.04Q99.72-0.36 98.38-0.02Q97.04 0.32 95.56 0.32L95.56 0.32Q91.72 0.32 89.62-1.64Q87.52-3.60 87.52-7.40L87.52-7.40L87.52-16.24L84.20-16.24L84.20-21.04L87.52-21.04L87.52-26.28L93.76-26.28L93.76-21.04L99.12-21.04L99.12-16.24L93.76-16.24L93.76-7.48Q93.76-6.12 94.46-5.38Q95.16-4.64 96.44-4.64L96.44-4.64Q97.92-4.64 98.96-5.44L98.96-5.44Z M108.24 0L108.24-21.52L114.48-21.52L114.48 0L108.24 0ZM111.36-24.52Q109.64-24.52 108.56-25.52Q107.48-26.52 107.48-28L107.48-28Q107.48-29.48 108.56-30.48Q109.64-31.48 111.36-31.48L111.36-31.48Q113.08-31.48 114.16-30.52Q115.24-29.56 115.24-28.12L115.24-28.12Q115.24-26.56 114.16-25.54Q113.08-24.52 111.36-24.52L111.36-24.52Z M133.68 0.48Q130.36 0.48 127.26-0.42Q124.16-1.32 122.28-2.76L122.28-2.76L124.48-7.64Q126.28-6.32 128.76-5.52Q131.24-4.72 133.72-4.72L133.72-4.72Q136.48-4.72 137.80-5.54Q139.12-6.36 139.12-7.72L139.12-7.72Q139.12-8.72 138.34-9.38Q137.56-10.04 136.34-10.44Q135.12-10.84 133.04-11.32L133.04-11.32Q129.84-12.08 127.80-12.84Q125.76-13.60 124.30-15.28Q122.84-16.96 122.84-19.76L122.84-19.76Q122.84-22.20 124.16-24.18Q125.48-26.16 128.14-27.32Q130.80-28.48 134.64-28.48L134.64-28.48Q137.32-28.48 139.88-27.84Q142.44-27.20 144.36-26L144.36-26L142.36-21.08Q138.48-23.28 134.60-23.28L134.60-23.28Q131.88-23.28 130.58-22.40Q129.28-21.52 129.28-20.08L129.28-20.08Q129.28-18.64 130.78-17.94Q132.28-17.24 135.36-16.56L135.36-16.56Q138.56-15.80 140.60-15.04Q142.64-14.28 144.10-12.64Q145.56-11 145.56-8.20L145.56-8.20Q145.56-5.80 144.22-3.82Q142.88-1.84 140.20-0.68Q137.52 0.48 133.68 0.48L133.68 0.48Z M162.32-21.84Q167.32-21.84 170.00-19.46Q172.68-17.08 172.68-12.28L172.68-12.28L172.68 0L166.84 0L166.84-2.68Q165.08 0.32 160.28 0.32L160.28 0.32Q157.80 0.32 155.98-0.52Q154.16-1.36 153.20-2.84Q152.24-4.32 152.24-6.20L152.24-6.20Q152.24-9.20 154.50-10.92Q156.76-12.64 161.48-12.64L161.48-12.64L166.44-12.64Q166.44-14.68 165.20-15.78Q163.96-16.88 161.48-16.88L161.48-16.88Q159.76-16.88 158.10-16.34Q156.44-15.80 155.28-14.88L155.28-14.88L153.04-19.24Q154.80-20.48 157.26-21.16Q159.72-21.84 162.32-21.84L162.32-21.84ZM161.84-3.88Q163.44-3.88 164.68-4.62Q165.92-5.36 166.44-6.80L166.44-6.80L166.44-9L162.16-9Q158.32-9 158.32-6.48L158.32-6.48Q158.32-5.28 159.26-4.58Q160.20-3.88 161.84-3.88L161.84-3.88Z M189.24-21.96L189.24-21.04L194.76-21.04L194.76-16.24L189.40-16.24L189.40 0L183.16 0L183.16-16.24L179.84-16.24L179.84-21.04L183.16-21.04L183.16-22Q183.16-25.68 185.34-27.84Q187.52-30 191.48-30L191.48-30Q192.88-30 194.14-29.70Q195.40-29.40 196.24-28.84L196.24-28.84L194.60-24.32Q193.52-25.08 192.08-25.08L192.08-25.08Q189.24-25.08 189.24-21.96L189.24-21.96Z M222.76-10.68Q222.76-10.56 222.64-9L222.64-9L206.36-9Q206.80-7 208.44-5.84Q210.08-4.68 212.52-4.68L212.52-4.68Q214.20-4.68 215.50-5.18Q216.80-5.68 217.92-6.76L217.92-6.76L221.24-3.16Q218.20 0.32 212.36 0.32L212.36 0.32Q208.72 0.32 205.92-1.10Q203.12-2.52 201.60-5.04Q200.08-7.56 200.08-10.76L200.08-10.76Q200.08-13.92 201.58-16.46Q203.08-19 205.70-20.42Q208.32-21.84 211.56-21.84L211.56-21.84Q214.72-21.84 217.28-20.48Q219.84-19.12 221.30-16.58Q222.76-14.04 222.76-10.68L222.76-10.68ZM211.60-17.12Q209.48-17.12 208.04-15.92Q206.60-14.72 206.28-12.64L206.28-12.64L216.88-12.64Q216.56-14.68 215.12-15.90Q213.68-17.12 211.60-17.12L211.60-17.12Z" />
        </g>
      </svg>
    </g>
    <g opacity="1" transform="rotate(0 651 248.5955)">
      <svg width="228" height="156.4815" x="651" y="248.5955" version="1.1" preserveAspectRatio="none"
        viewBox="21.693511962890625 48.548038482666016 157.3094940185547 107.96501159667969">
        <g transform="matrix(1 0 0 1 0 0)">
          <g>
            <path
              d="M178.779 83.204a5.094 5.094 0 0 1-.776 1.44 6.377 6.377 0 0 1-.383.459c-.552.603-1.27 1.168-2.153 1.674l-67.342 39.191c-2.351 1.348-5.452 2.021-8.553 2.021-3.101 0-6.204-.674-8.56-2.021l-27.263-15.597-8.225-4.705a10.23 10.23 0 0 1-.828-.525 8.116 8.116 0 0 1-1.325-1.149 5.795 5.795 0 0 1-.883-1.249 4.461 4.461 0 0 1-.442-1.309c-.025-.148-.029-.298-.037-.446l-.018.01v13.037c0 1.774 1.178 3.548 3.534 4.896l.214.122 35.275 20.18c2.356 1.348 5.459 2.021 8.56 2.021 3.101 0 6.202-.674 8.553-2.021l67.342-39.191c2.356-1.348 3.534-3.122 3.534-4.896V81.88a4.23 4.23 0 0 1-.224 1.324z"
              data-color="1" class="aDFQBjvS2colors-01b89afdb-e8a9-407d-906f-011b317b05d3"></path>
            <path
              d="M124.317 82.025c1.464-.839 3.396-1.259 5.328-1.259 1.932 0 3.864.42 5.329 1.259l14.432 8.256 7.667-4.422c2.934-1.678 2.934-4.421 0-6.094l-22.1-12.642c-1.464-.839-3.396-1.259-5.329-1.259-1.932 0-3.864.42-5.328 1.259l-1.63.94-4.346 2.507-.139 14.982 5.386-3.106.73-.421z"
              data-color="1" class="aDFQBjvS2colors-01b89afdb-e8a9-407d-906f-011b317b05d3"></path>
            <path
              d="M74.823 101.761l3.775 2.16 3.408 1.95.484.277 6.907-3.983c1.016-.837 1.931-1.948 2.648-3.176.975-1.668 1.588-3.548 1.602-5.235l.084-8.99-18.908 10.904c-2.934 1.673-2.934 4.415 0 6.093z"
              data-color="1" class="aDFQBjvS2colors-01b89afdb-e8a9-407d-906f-011b317b05d3"></path>
            <path
              d="M175.466 76.99l-35.489-20.302c-2.351-1.348-5.454-2.021-8.557-2.021-3.102 0-6.205.674-8.557 2.021l-.883.514-3.728 2.17c.119.597.181 1.25.173 1.962l-.086 9.236 4.346-2.507 1.63-.94c1.464-.839 3.396-1.259 5.328-1.259 1.932 0 3.864.42 5.329 1.259l22.1 12.642c2.934 1.673 2.934 4.415 0 6.094l-7.667 4.422-24.769 14.285-8.552 4.933c-.063.124-.129.245-.195.368-2.699 1.536-5.132 2.897-5.761 3.26-1.549.893-6.124 3.533-9.758 2.765-.908-.192-2.704-1.034-4.889-2.191-4.033-2.135-9.386-5.336-12.918-7.49l.019-.011-.092-.053-.484-.277-3.408-1.95-3.775-2.16c-2.934-1.678-2.934-4.421 0-6.094l18.908-10.905.071-7.636-41.795 23.861c.008.149.013.298.037.446.074.442.221.88.442 1.309.221.429.515.847.883 1.249.368.402.81.787 1.325 1.149.258.181.534.356.828.525l8.225 4.705 27.263 15.597c2.356 1.348 5.459 2.021 8.56 2.021 3.101 0 6.202-.674 8.553-2.021l67.342-39.191c.884-.505 1.601-1.071 2.153-1.674.138-.151.266-.304.383-.459.352-.465.611-.948.776-1.44.147-.437.221-.88.221-1.324.002-1.772-1.176-3.545-3.532-4.888z"
              data-color="2" class="aDFQBjvS2colors-11b89afdb-e8a9-407d-906f-011b317b05d3"></path>
            <path
              d="M118.253 59.372c-.333-1.679-1.135-2.896-2.265-3.556l-11.453-6.694c-1.531-.895-3.658-.774-6.01.58L30.709 88.066c-2.35 1.35-4.496 3.687-6.061 6.364s-2.549 5.696-2.574 8.41l-.38 40.884c-.025 2.714.913 4.626 2.444 5.521l11.453 6.694c1.531.895 3.656.772 6.004-.584l38.953-22.036-9.733-5.537-13.041-7.419-11.436 6.529.154-16.626c.016-1.69.628-3.57 1.603-5.237.975-1.667 2.311-3.123 3.774-3.963l.119-.068.018-.01 41.795-23.861-.071 7.636-.084 8.99c-.014 1.688-.627 3.567-1.602 5.235-.718 1.228-1.632 2.339-2.648 3.176-.364.3-.741.567-1.127.789l-5.688 3.247-.019.011c3.532 2.154 8.885 5.355 12.918 7.49 2.185 1.156 3.981 1.999 4.889 2.191 3.634.768 8.21-1.872 9.758-2.765.629-.363 3.062-1.723 5.761-3.26.065-.123.132-.244.195-.368 1.205-2.38 1.942-4.945 1.962-7.281l.155-16.666.139-14.982.086-9.236a9.48 9.48 0 0 0-.172-1.962zm-5.744-3.991z"
              data-color="3" class="aDFQBjvS2colors-21b89afdb-e8a9-407d-906f-011b317b05d3"></path>
            <path
              d="M118.253 59.372c-.333-1.679-1.135-2.896-2.265-3.556a4.115 4.115 0 0 0-1.255-.477 4.6 4.6 0 0 0-.521-.077 5.644 5.644 0 0 0-1.703.12c-.799.172-1.649.507-2.532 1.015L42.161 94.76c-2.35 1.35-4.496 3.687-6.061 6.364-1.565 2.678-2.549 5.696-2.574 8.41l-.38 40.884a9.737 9.737 0 0 0 .156 1.882c.108.575.271 1.096.482 1.561.423.929 1.04 1.631 1.806 2.079 1.531.895 3.656.772 6.004-.584l38.953-22.036-9.733-5.537L51.517 138.8c-2.925 1.689-5.292.305-5.261-3.075l.082-8.833.154-16.626c.016-1.69.628-3.57 1.603-5.237.975-1.667 2.311-3.123 3.774-3.963l.119-.068.018-.01 41.795-23.861 7.687-4.388c2.929-1.686 5.297-.302 5.261 3.075l-.014 1.449-.139 14.982-.084 9.028c-.014 1.688-.627 3.567-1.602 5.235s-2.312 3.124-3.775 3.965l-5.548 3.167-.106.06c2.185 1.156 3.981 1.999 4.889 2.191 3.634.768 8.21-1.872 9.758-2.765.629-.363 3.062-1.723 5.761-3.26.065-.123.132-.244.195-.368 1.205-2.38 1.942-4.945 1.962-7.281l.155-16.666.139-14.982.086-9.236a9.542 9.542 0 0 0-.173-1.961z"
              opacity=".4"></path>
          </g>
        </g>
      </svg>
    </g>
  </svg>
</svg>